<svg width="135" height="135" viewBox="0 0 135 135" fill="none" xmlns="http://www.w3.org/2000/svg">
<circle cx="67.5" cy="67.5" r="67.5" fill="#2962FF"/>
<path d="M41.64 101.44C38.824 101.44 36.52 100.64 34.728 99.04C32.936 97.376 32.04 95.296 32.04 92.8C32.04 90.368 32.776 88.416 34.248 86.944C35.72 85.408 37.544 84.64 39.72 84.64C40.232 84.64 40.744 84.704 41.256 84.832C41.768 84.896 42.12 84.928 42.312 84.928L43.56 85.12V98.56C45.672 97.92 47.464 96 48.936 92.8C50.472 89.536 51.4 83.936 51.72 76L53.64 36.16L46.92 34.24V32.8H96.36V34.24L90.6 35.68V97.12L96.36 98.56V100H69V98.56L74.76 97.12V35.2H56.52L54.6 76C54.088 85.152 52.68 91.68 50.376 95.584C48.072 99.488 45.16 101.44 41.64 101.44Z" fill="white"/>
</svg>